<?xml version="1.0" encoding="utf-8"?>
<!-- Generator: Adobe Illustrator 28.0.0, SVG Export Plug-In . SVG Version: 6.00 Build 0)  -->
<svg version="1.1" id="Capa_1" xmlns="http://www.w3.org/2000/svg" xmlns:xlink="http://www.w3.org/1999/xlink" x="0px" y="0px"
	 viewBox="0 0 1080 630.1" style="enable-background:new 0 0 1080 630.1;" xml:space="preserve">
<style type="text/css">
	.st0{fill:#FF77FF;}
</style>
<g id="Planos">
	<g>
		<g>
			<g>
				<g>
					<g>
						<path class="st0" d="M471.7,208.8c1.7,10.2,20.4,39.2,34.1,37.5c9.9-2,36.7-42.2,57.2-75.4c-3.4,39.2,2.1,73.1,33,68.6
							c16.5-3.7,31.9-25.8,44.9-52.7c2.8,25.8,13.7,63.5,53.8,64.6c85.2,1.4,24.9-115.2-8-161.9c17.1-0.4,30.1-3,30.1-18.6
							c0-18.7-8.5-25.5-30.7-25.5c-22.1,0-37.5,15.3-37.5,35.8c0,4.9,0.6,7.8,1.8,9.4c-16.7,41.5-50.7,117.5-76.7,120
							c-3.4,0,37.5-119.2,37.5-119.2s6.8-27.2-25.5-27.2c0,0-2.3,7.2-5.5,18.8c-9-11.2-24.5-20-50.7-13.7
							C521.1,72.6,454.7,111.8,471.7,208.8z M689.7,205.4c-27.7-1.4-36.2-30.9-38.5-41.9c8.2-20.3,15-41.1,19.9-57.3
							C687.6,144.5,710.7,205.4,689.7,205.4z M556.9,86.2c4.4,0,10.3,3.4,14.7,8c-6.4,11.6-58.7,106.5-62.6,119.9
							C498,150,541.7,89.6,556.9,86.2z"/>
					</g>
				</g>
				<g>
					<g>
						<path class="st0" d="M406,450.8c55.4-3.5,93.3-47.9,101.5-87c6.8-32.4-37.5-63-42.6-59.6c-19.1,0-34.3,20.4-44.4,39.4
							c-2.2-27-11.8-39.4-11.8-39.4s-20.4-8.5-28.9,10.2c-5.1,10.2-3.4,15.3-3.4,15.3s15.2,11.8,1.8,60.8c1-3.9,1.6-6.3,1.6-6.3
							s-3.4-15.3-17-6.8c0,0-22.1,74.9-42.6,74.9c-3.4,0,28.9-124.3,28.9-124.3l-25.5-4.3l-22.1-4.3c0,0-22.1,83.4-32.4,110.7
							c-5.1,15.3-13.6,30.7-17,30.7c-8.5,0-6.8-28.9-6.8-28.9c0-1.7,25.5-110.7,25.5-109l-35.8-6.8c0,0-32.4,110.7-27.2,126
							c5.1,23.8,23.8,54.5,46,54.5c10.7,0,32.5-39.4,52.2-80c-0.8,35.8,5.1,68.1,29.5,68.1c15.7,0,33.5-59.5,40.8-86.9
							c-16.7,65.5-12.5,101.7,20.5,134.6l27.2-30.7C409.3,487,404.2,474.5,406,450.8z M475.1,333.1c9.6,0-19.8,88.5-67.1,99.4
							c1.4-8.4,3.3-17.6,5.8-27.8c2.2-8.3,3.8-16,5-23.2C430.5,367.3,460.3,333.1,475.1,333.1z"/>
					</g>
				</g>
				<g>
					<g>
						<path class="st0" d="M904.5,329.6c17.3-0.4,30.4-3,30.4-18.6c0-18.7-8.5-25.5-30.7-25.5c-22.1,0-37.5,15.3-37.5,35.8
							c0,6,0.9,9,2.7,10.4c-15.6,41.3-48,118.6-74.1,122.3c-3.4,0,34.1-120.9,34.1-120.9s6.8-27.2-25.5-27.2c0,0-2.2,7.2-5.1,18.6
							c-9.5-10.8-25.2-18.9-51.1-11.8c-6.6,2.6-46.8,27.7-56,83.9c0-1.9-0.1-3.7-0.2-5.5c0,0-3.4-18.7-23.8-8.5
							c1.7,22.1-39.2,81.7-47.7,81.7c-3.4,0-3.4-23.8-3.4-27.2c5.8-19.9,17.3-52.8,25.8-83.4h49.2V323h-41.8
							c3.7-19.1,4.4-34.5-0.8-40.9l-37.5,5.1c2.4,9,2.1,21.7,0.4,35.8H586v30.7h20.5c-4.2,19-9.4,37-13.2,48.5
							c-3.4-4.7-8-7.8-14.2-5.9c0,0-34.1,66.4-47.7,66.4c-9.8,0,19.7-79.8,30.4-107.9c4.2-9.3,8.2-19.3,12.2-30.1h-42.6
							c0,0-7.2,26-12.1,57.5c-28,48.6-62.4,68.5-74.8,68.5V466c0,0,0,0,5.1,0c14.5,0,39-8.3,65.2-36.7c-0.5,33.6,6.4,62.3,31.8,62.3
							c11.6,0,29.8-26.2,41.9-46.1c7.1,23.8,28.1,46.1,46.7,46.1c18.3,0,47.1-36.2,54.6-75.6c-0.3,11.6,0.6,24.3,3.3,38.2
							c1.7,10.2,20.4,39.2,34.1,35.8c9.9-2,35.8-42.3,55.8-75.8c-2.6,39.1,3.7,72.6,34.5,67.3c16.4-3.6,31.3-25.8,43.7-52.7
							c3.3,25.7,14.9,62.9,55.1,62.9C1001.9,491.5,938,374.4,904.5,329.6z M730.3,457.6c-12.6-64.1,29.4-124.5,44.6-127.8
							c4.3,0,10.4,3,15.1,7.2C786.1,344.2,733.9,443.6,730.3,457.6z M911,445.5c-28,0-37.6-30-40.1-40.6
							c7.8-20.5,14.1-41.4,18.7-57.8C907.2,384.8,932.2,445.5,911,445.5z"/>
					</g>
				</g>
				<g>
					<g>
						<path class="st0" d="M106.1,432.9c44.4-9.5,100.1-36.5,111-111.1c5.1-34.1-59.6-63-59.6-63S82,324.5,68.7,421.6
							c-4.9,0.4-9.9,0.7-15.1,0.7l-5.1,15.3c0,0,7.2,0.6,18.6,0.1c-0.8,12.6-0.4,25.7,1.3,39.2C53,481.6,37.5,487.2,23,493.8
							l25.5,34.1c63-27.2,149.8-34.1,149.8-34.1v-40.9c0,0-43.1,2.9-93.8,14.5C103.7,455.7,104.4,444.1,106.1,432.9z M184.7,291.2
							c-10.7,56.7-33,99.3-73.5,119C128.4,351.3,172,304,184.7,291.2z"/>
					</g>
				</g>
				<g>
					<g>
						<path class="st0" d="M304.9,285.5c63-28.9,149.8-35.8,149.8-35.8v-40.9c0,0-43.2,2.9-94.1,14.6c-0.4-10,0.3-19.9,1.8-29.5
							c44.4-9.5,100.1-36.5,111-111.1c5.1-37.5-59.6-63-59.6-63S338.3,85.5,325,182.6c-4.9,0.4-9.9,0.7-15.1,0.7l-5.1,15.3
							c0,0,7.2,0.6,18.6,0.1c-0.7,11.1-0.5,22.5,0.7,34.3c-15.3,4.7-30.6,10.2-44.9,16.7L304.9,285.5z M441,52.2
							c-10.7,56.7-33,99.3-73.5,119C384.7,112.3,428.3,65,441,52.2z"/>
					</g>
				</g>
				<g>
					<path class="st0" d="M551.8,256.5c-11.9,0-25.5,11.9-25.5,27.2c0,13.6,13.6,25.5,25.5,25.5c15.3,0,28.9-11.9,28.9-25.5
						C580.7,268.4,567.1,256.5,551.8,256.5z"/>
				</g>
			</g>
		</g>
		<g>
			<g>
				<g>
					<g>
						<path class="st0" d="M369.2,615.9c-1.2,0-2.3-0.4-3.2-1.2L345.7,598c-0.6,0.4-1.3,0.8-2,1.2c-2.6,1.3-5.6,2-8.6,2
							c-2.2,0-4.5-0.4-6.5-1.1c-4.1-1.5-7.2-4.5-8.7-8.2c-3.5-8.8,1.5-17.9,14-25.7c1.2-0.8,2.6-1.1,4.2-1.1c1.4,0,2.9,0.3,4.4,0.9
							c4.5,1.8,9.7,6.1,11.3,12c1.1,4,0.6,8.6-1.5,12.6l20,16.5c1,0.9,1.7,2.1,1.8,3.4c0.1,1.3-0.3,2.7-1.1,3.7
							C372.1,615.2,370.7,615.9,369.2,615.9z M338.7,576.2c-5.1,3.4-9.9,8.1-8.5,11.5c0.4,1.1,1.5,1.7,2.3,2s1.7,0.5,2.7,0.5
							c1.3,0,2.5-0.3,3.5-0.8c3.3-1.7,5.3-5.6,4.5-8.6C342.6,578.6,340,576.8,338.7,576.2z"/>
					</g>
					<g>
						<path class="st0" d="M208.2,114.6c-2.4,0-4.6-1.6-5.3-3.8c-0.5-1.4-0.4-2.9,0.3-4.1c0.7-1.3,1.8-2.2,3.2-2.6l29.1-8.1
							c-0.2-6.7,4.6-13.3,13.9-19.1c1.1-0.7,2.5-1.1,3.9-1.1c1.3,0,2.7,0.3,4.1,0.9c4.1,1.6,9,5.7,10.5,11.1c2,7.4-2,15.9-9.4,19.8
							c-2.4,1.2-5.1,1.9-8,1.9c-2.1,0-4.2-0.4-6-1.1c-1.6-0.6-3-1.4-4.3-2.5l-30.7,8.5C209.2,114.6,208.7,114.6,208.2,114.6z
							 M253.9,86.5c-4.6,3.1-8.9,7.3-7.7,10.4c0.4,1,1.3,1.5,2,1.7c0.7,0.3,1.5,0.4,2.4,0.4c1.1,0,2.3-0.3,3.2-0.7
							c2.9-1.5,4.8-5.1,4.1-7.7C257.4,88.7,255.2,87.1,253.9,86.5z"/>
					</g>
					<g>
						<path class="st0" d="M790.8,267.3c-0.1,0-0.3,0-0.4,0c-1.5-0.1-2.8-0.8-3.7-1.9s-1.3-2.5-1.1-3.9l1.2-10.6
							c-2.1-1.6-3.8-3.6-4.7-6c-3.4-8.6,1.4-17.5,13.7-25.1c1.2-0.7,2.6-1.1,4.1-1.1c1.4,0,2.8,0.3,4.3,0.9c4.4,1.7,9.5,6,11,11.7
							c2.1,7.9-2.1,16.8-9.9,20.8c-2.4,1.3-5.2,1.9-8.1,2l-1,8.4C796.1,265.2,793.7,267.3,790.8,267.3z M800.5,229.7
							c-5,3.3-9.6,7.9-8.3,11.2c0.4,1,1.4,1.6,2.2,1.9c0.8,0.3,1.7,0.4,2.6,0.4c1.2,0,2.4-0.3,3.4-0.8c3.2-1.6,5.2-5.4,4.4-8.3
							C804.3,232.1,801.8,230.3,800.5,229.7z"/>
					</g>
				</g>
				<g>
					<g>
						<g>
							<path class="st0" d="M463.1,617.7c-2.3,0-4.7-1.6-4.8-4.6c-0.2-6.5-0.9-13.5-4.5-20.3c-2.1-3.9-6.4-4.4-11.3-4.6
								c-2.8-0.1-4.5-2.5-4.6-4.7c-0.2-2.4,1.3-4.2,3.6-4.6c5.7-1,10.7-1.8,13.8-7.3c1.3-2.3,2.4-5,3.2-8c-0.4-3.7-0.6-7.3-0.6-9.7
								c-0.1-1.9,0.8-3.5,2.4-4.5c1.7-1,4.1-1,5.8,0c1.6,0.9,2.5,2.6,2.5,4.5c-0.1,7.4,0.5,13.1,2.1,18c1.2,3.8,4.5,6.2,9,6.8
								c0.9,0,1.9,0.1,3,0.1l0,0c3.5,0.2,5.2,3.1,5.1,5.8c-0.1,2.5-2,5-5.2,4.8c-0.6,0-1.3,0-2,0c-2.1,0-4.4,0-6.1,0.7
								c-2.5,0.9-4,3.3-4.9,5.2c-1.2,2.7-1.8,5.7-1.9,9.6c0.2,2.6,0.3,5.2,0.3,8.1C467.9,616,465.5,617.6,463.1,617.7
								C463.2,617.7,463.2,617.7,463.1,617.7z"/>
						</g>
						<g>
							<path class="st0" d="M112.1,224.9c-2.1,0-3.8-1.6-3.9-3.7c-0.2-4.5-0.4-10-0.4-15.5c-0.4-7.9-1.2-14.4-2.5-20.3
								c-1.7-7.8-4.8-14.8-8.5-22.5c-1.9-4-3.8-8-6.5-11.2c-8.4-9.9-23.3-10.8-36.6-10.8c-2,0-3.6-1.6-3.7-3.6
								c-0.2-1.9,1-3.5,2.9-3.8s3.9-0.6,5.9-0.9c6.6-1,13.3-1.9,19.4-4.5c8.3-3.5,16.1-10.8,20.9-19.5c4.3-7.8,6.4-17.4,8-25.7
								c0.8-3.9,1.4-8.1,1.8-12.4c-0.5-6.1-0.8-12.1-0.8-17.7c0-1.5,0.7-2.8,2-3.5c1.4-0.8,3.1-0.8,4.5,0c1.3,0.7,2,2,2,3.5
								c-0.1,15.2,0.7,37.7,8.1,57.2c6.4,16.8,24.5,23.8,38.1,24.7c1.6,0,3.2,0.1,4.8,0.1c2.3,0,4.1,1.8,4.1,4.2
								c0,2.3-1.8,4.1-4.1,4.1c-1.7,0-3.5,0-5.3,0h-1.6l-0.3,0.1c-6.8,0.9-13.5,2-19.2,4.9c-5.3,2.6-9.5,6.8-13.7,13.4
								c-6.4,10.2-10.5,21.5-11.9,32.6c-0.1,1.9-0.1,4-0.2,6.1c0.5,6.8,0.6,13.5,0.6,21C115.9,223.3,114.3,224.9,112.1,224.9
								C112.2,224.9,112.1,224.9,112.1,224.9z"/>
						</g>
						<g>
							<path class="st0" d="M1011.8,610.4c-1.8,0-3.3-1.4-3.3-3.2c-0.1-3.4-0.3-7.6-0.3-11.7c-0.3-6-0.9-10.8-1.8-15.3
								c-1.3-5.9-3.6-11.1-6.4-16.9c-1.4-3-2.8-6-4.9-8.4c-6.2-7.3-17.3-8-27.3-8c-1.7,0-3.1-1.3-3.2-3.1c-0.1-1.7,0.9-3.1,2.5-3.3
								c1.5-0.2,2.9-0.5,4.4-0.7c4.9-0.7,10-1.5,14.5-3.4c6.2-2.6,12-8.1,15.5-14.5c3.2-5.9,4.8-13,6-19.3c0.6-2.9,1-6,1.4-9.2
								c-0.4-4.6-0.6-9.1-0.6-13.3c0-1.3,0.6-2.4,1.7-3c1.1-0.7,2.6-0.7,3.8,0c1.1,0.6,1.7,1.7,1.7,3c0,11.4,0.6,28.4,6.1,43
								c4.7,12.5,18.2,17.7,28.4,18.3h0.3c1.1,0,2.2,0.1,3.2,0.1c2,0,3.5,1.6,3.5,3.6s-1.5,3.5-3.5,3.5c-1.3,0-2.6,0-3.9,0h-1.2
								h-0.2c-5.1,0.7-10.1,1.5-14.4,3.7c-3.9,1.9-7.1,5-10.2,10c-4.8,7.6-7.9,16.1-8.9,24.4c-0.1,1.4-0.1,3-0.1,4.5
								c0.4,5.1,0.4,10.2,0.5,15.9C1015,609,1013.7,610.4,1011.8,610.4L1011.8,610.4z"/>
						</g>
					</g>
				</g>
			</g>
			<path class="st0" d="M896.2,141.9c-0.8,0-1.6-0.1-2.5-0.1c-3.7-0.5-7.1-2.5-8.3-6.4c-1.5-4.7-1.8-9.8-1.7-14.8
				c0.1-3.7-5.9-3.7-5.8,0c0.1,2.5,0.2,5.2,0.5,7.9c-0.7,2.5-1.6,4.9-2.7,6.9c-2.7,4.8-6.9,5.6-11.9,6.5c-2.8,0.5-2,4.6,0.6,4.7
				c4,0.1,8.1,0.5,10.1,4.4c2.9,5.3,3.5,10.8,3.7,16.7c0.1,3.1,4.9,3.2,4.9,0c0-2.2-0.1-4.3-0.3-6.4c0-2.8,0.4-5.6,1.6-8.3
				c0.9-2.1,2.4-4,4.6-4.8c2.2-0.8,4.8-0.6,7-0.7C899.9,147.8,899.9,142.1,896.2,141.9z"/>
		</g>
	</g>
</g>
</svg>
